# xmcd
#
# Track frame offsets:
# 150
# 17356
# 31109
# 46630
# 62080
# 77775
# 98704
# 110581
# 119857
# 136030
# 155075
# 182616
# 199724
# 214581
# 232570
# 248930
# 261881
# 276300
#
# Disc length: 3962 seconds
#
#
# Revision: 0
# Processed by: cddbd v1.5.2PL0 Copyright (c) Steve Scherf et al.
# Submitted via: FreeRIP 2.50 
#
DISCID=ec0f7812
DTITLE=Various Artist - CDXmas Volume 1023
DYEAR=2007
DGENRE=Country
TTITLE0=All I Want For Christmas Is You - Vince Vance
TTITLE1=Bring Daddy Home - Tony Justice
TTITLE2=Christmas In The Desert - Paul Parr
TTITLE3=Christmas In Waikiki - David Ball
TTITLE4=Christmas Just Ain't Christmas Without You - Vince Vance
TTITLE5=Coming Home For Christmas - Richie McDonald w/ Jim Brickman
TTITLE6=Country Christmas - Vince Hatfield
TTITLE7=I Know Santa's Been Here - Michelle Wright
TTITLE8=I'm Comin' Home For Christmas - Joe Louis Puerta
TTITLE9=I'm Down To My Christmas Underwear - Kacey Jones
TTITLE10=O Holy Night - John Berry
TTITLE11=On This Christmas Night - James House
TTITLE12=Santa Needs A Mrs. Claus - Marjorie Rose
TTITLE13=Santa's Gonna Be Late - Jason Sutton
TTITLE14=Watching Over The Soldiers At Christmas - 3 Fox Drive w/ Charlie Daniels
TTITLE15=White Christmas - 4 Sisters and A Cousin
TTITLE16=Mary Had A Little Boy - Todd Fritsch
TTITLE17=A Cold December Night - Leon Seiter
EXTD=
EXTT0=
EXTT1=
EXTT2=
EXTT3=
EXTT4=
EXTT5=
EXTT6=
EXTT7=
EXTT8=
EXTT9=
EXTT10=
EXTT11=
EXTT12=
EXTT13=
EXTT14=
EXTT15=
EXTT16=
EXTT17=
PLAYORDER=
